<?xml version="1.0" encoding="UTF-8"?>
<svg xmlns="http://www.w3.org/2000/svg" xmlns:xlink="http://www.w3.org/1999/xlink" width="20pt" height="14pt" viewBox="0 0 20 14" version="1.1">
<g id="surface1">
<path style="fill:none;stroke-width:60;stroke-linecap:butt;stroke-linejoin:miter;stroke:rgb(0%,59.215686%,61.176471%);stroke-opacity:1;stroke-miterlimit:4;" d="M 173.953125 29.941406 C 93.65625 29.941406 28.40625 92.695312 28.40625 169.941406 C 28.40625 247.324219 93.65625 309.941406 173.953125 309.941406 C 363.9375 320.058594 343.96875 29.941406 543.9375 29.941406 C 624.375 29.941406 689.484375 92.695312 689.484375 169.941406 C 689.484375 247.324219 624.375 309.941406 543.9375 309.941406 C 353.953125 320.058594 374.0625 29.941406 173.953125 29.941406 " transform="matrix(0.0277778,0,0,0.0285714,0,0)"/>
<path style="fill-rule:nonzero;fill:rgb(0%,59.215686%,61.176471%);fill-opacity:1;stroke-width:20;stroke-linecap:butt;stroke-linejoin:miter;stroke:rgb(0%,59.215686%,61.176471%);stroke-opacity:1;stroke-miterlimit:4;" d="M 528.046875 194.667969 L 528.046875 161.855469 L 495.5625 161.855469 L 495.5625 148.183594 L 528.046875 148.183594 L 528.046875 115.644531 L 541.96875 115.644531 L 541.96875 148.183594 L 574.453125 148.183594 L 574.453125 161.855469 L 541.96875 161.855469 L 541.96875 194.667969 Z M 528.046875 194.667969 " transform="matrix(0.0277778,0,0,0.0285714,0,0.285714)"/>
<path style="fill-rule:nonzero;fill:rgb(0%,59.215686%,61.176471%);fill-opacity:1;stroke-width:1;stroke-linecap:butt;stroke-linejoin:miter;stroke:rgb(0%,59.215686%,61.176471%);stroke-opacity:1;stroke-miterlimit:4;" d="M 681.609375 29.257812 L 681.609375 15.722656 L 676.40625 15.722656 L 676.40625 13.398438 L 689.34375 13.398438 L 689.34375 15.722656 L 684.140625 15.722656 L 684.140625 29.257812 Z M 691.171875 29.257812 L 691.171875 13.398438 L 695.109375 13.398438 L 699.046875 26.113281 L 702.984375 13.398438 L 706.78125 13.398438 L 706.78125 29.257812 L 704.390625 29.257812 L 704.390625 15.859375 L 700.3125 29.257812 L 697.921875 29.257812 L 693.5625 15.722656 L 693.5625 29.257812 Z M 691.171875 29.257812 " transform="matrix(0.0277778,0,0,0.0285714,0,0)"/>
<path style="fill-rule:nonzero;fill:rgb(0%,59.215686%,61.176471%);fill-opacity:1;stroke-width:2.39844;stroke-linecap:butt;stroke-linejoin:miter;stroke:rgb(0%,59.215686%,61.176471%);stroke-opacity:1;stroke-miterlimit:4;" d="M 83.227737 494.794636 L 76.868143 471.848847 L 36.222039 471.848847 L 29.724192 494.794636 L 8.018619 494.794636 L 42.443381 378.535975 L 72.997085 378.535975 L 107.421847 494.794636 Z M 56.821595 399.812978 L 41.475617 454.048478 L 72.029321 454.048478 Z M 56.821595 399.812978 " transform="matrix(0.0282546,0,0,0.0280893,0,0)"/>
<path style="fill-rule:nonzero;fill:rgb(0%,59.215686%,61.176471%);fill-opacity:1;stroke-width:2.39844;stroke-linecap:butt;stroke-linejoin:miter;stroke:rgb(0%,59.215686%,61.176471%);stroke-opacity:1;stroke-miterlimit:4;" d="M 178.2069 494.794636 L 161.754905 457.525113 C 160.234132 453.909413 158.022099 451.26717 155.257058 449.45932 C 152.630269 447.65147 149.31222 446.678013 145.579414 446.678013 L 141.431853 446.678013 L 141.431853 494.794636 L 119.449776 494.794636 L 119.449776 378.535975 L 153.459782 378.535975 C 159.819376 378.535975 165.625963 379.092236 170.879541 380.204759 C 176.133119 381.317282 180.557185 383.125132 184.151738 385.628309 C 187.884543 388.131486 190.787837 391.469055 192.723365 395.641017 C 194.658894 399.673913 195.626659 404.680267 195.626659 410.660078 C 195.626659 414.971105 195.07365 418.725871 193.829382 422.06344 C 192.585113 425.401009 190.787837 428.182317 188.575804 430.685494 C 186.363771 433.049605 183.59873 434.99652 180.557185 436.52624 C 177.377387 437.916894 174.059338 439.029417 170.326532 439.585678 C 173.229826 440.14194 175.718363 441.810724 178.2069 444.452967 C 180.557185 447.095209 182.907469 450.849974 185.257754 455.856328 L 203.921782 494.794636 Z M 172.676817 412.746059 C 172.676817 407.044378 170.879541 403.011482 167.284987 400.508305 C 163.690434 398.005128 158.298604 396.75354 150.971245 396.75354 L 141.431853 396.75354 L 141.431853 429.572971 L 150.279984 429.572971 C 153.736286 429.572971 156.777831 429.29484 159.542872 428.599513 C 162.307913 427.765121 164.658198 426.791663 166.593727 425.401009 C 168.529256 423.87129 170.050028 422.202505 171.156045 419.977459 C 172.123809 417.891478 172.676817 415.527367 172.676817 412.746059 Z M 172.676817 412.746059 " transform="matrix(0.0282546,0,0,0.0280893,0,0)"/>
<path style="fill-rule:nonzero;fill:rgb(0%,59.215686%,61.176471%);fill-opacity:1;stroke-width:2.39844;stroke-linecap:butt;stroke-linejoin:miter;stroke:rgb(0%,59.215686%,61.176471%);stroke-opacity:1;stroke-miterlimit:4;" d="M 303.878018 435.274651 C 303.878018 444.174836 302.772002 452.379693 300.559969 459.750159 C 298.347936 467.120624 294.891634 473.378566 290.191065 478.663051 C 285.490495 483.80847 279.407404 487.841366 272.080045 490.622674 C 264.752686 493.403982 255.904555 494.794636 245.673903 494.794636 L 216.087963 494.794636 L 216.087963 378.535975 L 250.512725 378.535975 C 259.360856 378.535975 267.241223 379.648498 273.877322 381.873544 C 280.513421 384.09859 286.181755 387.575225 290.605821 392.164382 C 295.029887 396.75354 298.347936 402.594286 300.559969 409.825686 C 302.772002 416.918021 303.878018 425.401009 303.878018 435.274651 Z M 280.375169 436.665305 C 280.375169 430.407363 279.960412 424.705682 278.854396 419.838394 C 277.886632 414.83204 276.227607 410.660078 273.73907 407.322509 C 271.388785 403.845875 268.208988 401.342698 264.199678 399.534848 C 260.052116 397.726998 255.075042 396.892605 249.130204 396.892605 L 237.931788 396.892605 L 237.931788 476.57707 L 247.609431 476.57707 C 258.25484 476.57707 266.411711 473.239501 272.080045 466.842493 C 277.610128 460.445486 280.375169 450.432778 280.375169 436.665305 Z M 280.375169 436.665305 " transform="matrix(0.0282546,0,0,0.0280893,0,0)"/>
<path style="fill-rule:nonzero;fill:rgb(0%,59.215686%,61.176471%);fill-opacity:1;stroke-width:2.39844;stroke-linecap:butt;stroke-linejoin:miter;stroke:rgb(0%,59.215686%,61.176471%);stroke-opacity:1;stroke-miterlimit:4;" d="M 401.345717 452.101563 C 401.345717 459.472028 400.239701 466.008101 398.304172 471.570716 C 396.368643 477.133332 393.46535 481.861555 389.732545 485.61632 C 385.999739 489.371086 381.575673 492.152393 376.183843 494.099309 C 370.792013 495.907159 364.847175 496.880616 358.211076 496.880616 C 350.745465 496.880616 344.38587 495.907159 338.99404 494.099309 C 333.60221 492.152393 329.316396 489.371086 325.998347 485.894451 C 322.680298 482.278751 320.330013 477.967724 318.80924 472.822305 C 317.288467 467.815951 316.597207 461.975205 316.597207 455.717263 L 316.597207 378.535975 L 338.441032 378.535975 L 338.441032 454.326609 C 338.441032 458.22044 338.855788 461.697074 339.408796 464.756513 C 340.100057 467.815951 341.344325 470.319128 343.00335 472.405109 C 344.662374 474.630155 346.874407 476.159874 349.362944 477.272397 C 351.989733 478.245855 355.169531 478.802116 359.040588 478.802116 C 362.635142 478.802116 365.676687 478.38492 368.165224 477.411463 C 370.653761 476.57707 372.727542 475.047351 374.386566 472.96137 C 376.045591 471.014455 377.28986 468.372213 378.119372 465.173709 C 378.948884 461.975205 379.36364 458.081374 379.36364 453.492217 L 379.36364 378.535975 L 401.345717 378.535975 Z M 401.345717 452.101563 " transform="matrix(0.0282546,0,0,0.0280893,0,0)"/>
<path style="fill-rule:nonzero;fill:rgb(0%,59.215686%,61.176471%);fill-opacity:1;stroke-width:2.39844;stroke-linecap:butt;stroke-linejoin:miter;stroke:rgb(0%,59.215686%,61.176471%);stroke-opacity:1;stroke-miterlimit:4;" d="M 422.498282 396.475409 L 422.498282 378.535975 L 496.048375 378.535975 L 496.048375 396.475409 L 470.471745 396.475409 L 470.471745 476.716136 L 496.048375 476.716136 L 496.048375 494.794636 L 422.498282 494.794636 L 422.498282 476.716136 L 448.213164 476.716136 L 448.213164 396.475409 Z M 422.498282 396.475409 " transform="matrix(0.0282546,0,0,0.0280893,0,0)"/>
<path style="fill-rule:nonzero;fill:rgb(0%,59.215686%,61.176471%);fill-opacity:1;stroke-width:2.39844;stroke-linecap:butt;stroke-linejoin:miter;stroke:rgb(0%,59.215686%,61.176471%);stroke-opacity:1;stroke-miterlimit:4;" d="M 575.405055 494.794636 L 544.298343 425.401009 L 537.938748 410.521013 L 537.938748 494.794636 L 518.030452 494.794636 L 518.030452 378.535975 L 544.851351 378.535975 L 576.649324 448.346797 L 582.179406 461.975205 L 582.179406 378.535975 L 602.225954 378.535975 L 602.225954 494.794636 Z M 575.405055 494.794636 " transform="matrix(0.0282546,0,0,0.0280893,0,0)"/>
<path style="fill-rule:nonzero;fill:rgb(0%,59.215686%,61.176471%);fill-opacity:1;stroke-width:2.39844;stroke-linecap:butt;stroke-linejoin:miter;stroke:rgb(0%,59.215686%,61.176471%);stroke-opacity:1;stroke-miterlimit:4;" d="M 706.88276 436.248109 C 706.88276 446.817078 705.638491 455.856328 703.288207 463.504924 C 700.79967 471.15352 697.343368 477.411463 693.057554 482.417816 C 688.771741 487.285105 683.794667 490.900805 677.98808 493.264916 C 672.181494 495.768093 665.960152 496.880616 659.462305 496.880616 C 644.116327 496.880616 632.641406 491.735197 624.899291 481.583424 C 617.157176 471.431651 613.286118 456.69072 613.286118 437.221567 C 613.286118 426.652597 614.530387 417.613348 617.018924 409.964751 C 619.507461 402.316155 622.82551 396.058213 627.111324 391.051859 C 631.397138 386.184571 636.512464 382.429805 642.31905 380.065694 C 647.987384 377.701582 654.208727 376.589059 660.844825 376.589059 C 676.190804 376.589059 687.665724 381.595413 695.407839 391.747186 C 703.011702 401.898959 706.88276 416.778955 706.88276 436.248109 Z M 683.794667 437.221567 C 683.794667 423.454094 681.99739 413.163255 678.264584 406.488117 C 674.531779 399.673913 668.586941 396.336344 660.153565 396.336344 C 655.867752 396.336344 652.273198 397.170736 649.369905 398.978586 C 646.32836 400.647371 643.978075 403.289613 642.042546 406.627182 C 640.107017 409.964751 638.724497 414.136713 637.756732 419.143067 C 636.92722 424.149421 636.374212 429.851101 636.374212 436.248109 C 636.374212 450.015582 638.30974 460.167355 642.042546 466.981559 C 645.775351 473.795763 651.72019 477.133332 660.153565 477.133332 C 664.301127 477.133332 667.89568 476.298939 670.937226 474.491089 C 673.978771 472.822305 676.329056 470.180063 678.264584 466.842493 C 680.200113 463.365859 681.582634 459.193897 682.412146 454.326609 C 683.379911 449.320255 683.794667 443.618574 683.794667 437.221567 Z M 683.794667 437.221567 " transform="matrix(0.0282546,0,0,0.0280893,0,0)"/>
<path style="fill-rule:nonzero;fill:rgb(0%,59.215686%,61.176471%);fill-opacity:1;stroke-width:23.619034;stroke-linecap:butt;stroke-linejoin:miter;stroke:rgb(0%,59.215686%,61.176471%);stroke-opacity:1;stroke-miterlimit:4;" d="M 321.42703 266.347648 L 321.42703 248.807044 L 374.635606 248.807044 L 374.635606 266.347648 Z M 321.42703 266.347648 " transform="matrix(0.043461,0,0,0.0182612,-10.160959,0.0150781)"/>
</g>
</svg>
