<?xml version="1.0" encoding="UTF-8"?>
<svg xmlns="http://www.w3.org/2000/svg" xmlns:xlink="http://www.w3.org/1999/xlink" width="20pt" height="19pt" viewBox="0 0 20 19" version="1.1">
<defs>
<linearGradient id="linear0" gradientUnits="userSpaceOnUse" x1="0.129594" y1="0.120394" x2="0.796388" y2="0.782009" gradientTransform="matrix(14.789063,0,0,14.144531,0.0117188,0.00390625)">
<stop offset="0" style="stop-color:rgb(21.960784%,49.411765%,72.156863%);stop-opacity:1;"/>
<stop offset="1" style="stop-color:rgb(21.176471%,41.176471%,58.039216%);stop-opacity:1;"/>
</linearGradient>
<linearGradient id="linear1" gradientUnits="userSpaceOnUse" x1="0.191275" y1="0.205792" x2="0.907415" y2="0.88429" gradientTransform="matrix(14.789063,0,0,14.140625,5.175781,4.792969)">
<stop offset="0" style="stop-color:rgb(100%,87.843137%,32.156863%);stop-opacity:1;"/>
<stop offset="1" style="stop-color:rgb(100%,76.470588%,19.215686%);stop-opacity:1;"/>
</linearGradient>
</defs>
<g id="surface1">
<path style=" stroke:none;fill-rule:nonzero;fill:url(#linear0);" d="M 9.914062 0.00390625 C 4.851562 0.00390625 5.167969 2.101562 5.167969 2.101562 L 5.171875 4.269531 L 10.003906 4.269531 L 10.003906 4.921875 L 3.253906 4.921875 C 3.253906 4.921875 0.0117188 4.570312 0.0117188 9.445312 C 0.0117188 14.320312 2.839844 14.148438 2.839844 14.148438 L 4.527344 14.148438 L 4.527344 11.886719 C 4.527344 11.886719 4.4375 9.1875 7.3125 9.1875 L 12.105469 9.1875 C 12.105469 9.1875 14.800781 9.230469 14.800781 6.703125 L 14.800781 2.53125 C 14.800781 2.53125 15.207031 0.00390625 9.914062 0.00390625 Z M 7.25 1.464844 C 7.730469 1.464844 8.121094 1.835938 8.121094 2.292969 C 8.121094 2.753906 7.730469 3.125 7.25 3.125 C 6.769531 3.125 6.378906 2.753906 6.378906 2.292969 C 6.378906 1.835938 6.769531 1.464844 7.25 1.464844 Z M 7.25 1.464844 "/>
<path style=" stroke:none;fill-rule:nonzero;fill:url(#linear1);" d="M 10.058594 18.933594 C 15.125 18.933594 14.808594 16.839844 14.808594 16.839844 L 14.800781 14.667969 L 9.96875 14.667969 L 9.96875 14.019531 L 16.722656 14.019531 C 16.722656 14.019531 19.964844 14.367188 19.964844 9.496094 C 19.964844 4.621094 17.132812 4.792969 17.132812 4.792969 L 15.445312 4.792969 L 15.445312 7.054688 C 15.445312 7.054688 15.535156 9.753906 12.664062 9.753906 L 7.867188 9.753906 C 7.867188 9.753906 5.175781 9.710938 5.175781 12.234375 L 5.175781 16.410156 C 5.175781 16.410156 4.765625 18.933594 10.058594 18.933594 Z M 12.722656 17.476562 C 12.242188 17.476562 11.855469 17.105469 11.855469 16.644531 C 11.855469 16.1875 12.242188 15.816406 12.722656 15.816406 C 13.207031 15.816406 13.59375 16.1875 13.59375 16.644531 C 13.59375 17.105469 13.207031 17.476562 12.722656 17.476562 Z M 12.722656 17.476562 "/>
</g>
</svg>
